<?xml version="1.0" encoding="UTF-8" standalone="no"?>
<!-- Generator: Adobe Illustrator 19.0.0, SVG Export Plug-In . SVG Version: 6.00 Build 0)  -->

<svg
   xmlns:dc="http://purl.org/dc/elements/1.1/"
   xmlns:cc="http://creativecommons.org/ns#"
   xmlns:rdf="http://www.w3.org/1999/02/22-rdf-syntax-ns#"
   xmlns:svg="http://www.w3.org/2000/svg"
   xmlns="http://www.w3.org/2000/svg"
   xmlns:sodipodi="http://sodipodi.sourceforge.net/DTD/sodipodi-0.dtd"
   xmlns:inkscape="http://www.inkscape.org/namespaces/inkscape"
   version="1.1"
   id="Layer_1"
   x="0px"
   y="0px"
   viewBox="0 0 511.99899 486.39801"
   xml:space="preserve"
   inkscape:version="0.91 r13725"
   sodipodi:docname="001-delivery-man.svg"
   width="511.99899"
   height="486.39801"><metadata
     id="metadata47"><rdf:RDF><cc:Work
         rdf:about=""><dc:format>image/svg+xml</dc:format><dc:type
           rdf:resource="http://purl.org/dc/dcmitype/StillImage" /><dc:title></dc:title></cc:Work></rdf:RDF></metadata><defs
     id="defs45" /><sodipodi:namedview
     pagecolor="#ffffff"
     bordercolor="#666666"
     borderopacity="1"
     objecttolerance="10"
     gridtolerance="10"
     guidetolerance="10"
     inkscape:pageopacity="0"
     inkscape:pageshadow="2"
     inkscape:window-width="640"
     inkscape:window-height="480"
     id="namedview43"
     showgrid="false"
     fit-margin-top="0"
     fit-margin-left="0"
     fit-margin-right="0"
     fit-margin-bottom="0"
     inkscape:zoom="0.4609375"
     inkscape:cx="256"
     inkscape:cy="243.199"
     inkscape:window-x="0"
     inkscape:window-y="0"
     inkscape:window-maximized="0"
     inkscape:current-layer="Layer_1" /><g
     transform="translate(1,-11.801)"
     id="g3"><g
       id="g5"><g
         id="g7"><path
           d="M 485.4,411.16 C 434.47,384.152 395.404,369.008 360.628,363.202 l 3.599,-4.948 c 1.707,-1.707 2.56,-4.267 1.707,-6.827 l -8.067,-32.267 c 20.803,-29.854 32.748,-67.112 31.96,-102.56 l 0,-50.76 c 0.579,-0.417 1.149,-0.847 1.707,-1.293 11.093,-9.387 17.067,-23.04 17.067,-36.693 0,-64 -52.053,-116.053 -115.2,-116.053 l -75.947,0 c -64,0 -116.053,52.053 -116.907,115.2 0,14.507 5.973,27.307 17.067,36.693 0.279,0.215 0.57,0.415 0.853,0.624 l 0,52.282 c 0,35.558 12.446,72.939 33.597,102.839 l -7.997,31.987 c 0,1.707 0,4.267 1.707,6.827 l 3.599,4.948 C 114.597,369.008 75.53,384.151 24.601,411.159 8.387,418.84 -1,435.053 -1,452.973 l 0,36.693 c 0,5.12 3.413,8.533 8.533,8.533 l 494.933,0 c 5.12,0 8.533,-3.413 8.533,-8.533 l 0,-36.693 C 511,435.907 500.76,419.693 485.4,411.16 Z m -140.8,-75.093 3.413,15.36 -8.717,11.969 c -0.556,0.455 -1.071,1.006 -1.523,1.684 l -46.933,64.853 -23.009,-51.982 c 24.824,-2.986 47.238,-14.489 65.882,-31.265 3.744,-3.301 7.38,-6.842 10.887,-10.619 z m 35.84,-185.174 c -0.224,0.196 -0.458,0.378 -0.687,0.567 -0.959,0.223 -1.89,0.582 -2.726,1.14 -3.692,2.769 -7.634,4.53 -11.689,5.303 -3.216,0.493 -6.488,0.449 -9.644,-0.183 -61.203,-11.621 -123.109,-12.69 -182.526,-3.21 -6.594,0.953 -13.167,2.019 -19.714,3.21 -1.051,0.117 -2.102,0.181 -3.151,0.202 -6.86,-0.123 -13.508,-2.029 -19.036,-6.175 -5.12,-3.413 -8.533,-8.533 -10.24,-13.653 l 36.693,-6.827 c 64,-11.947 129.707,-11.947 195.413,0 l 36.407,6.773 c -1.889,4.831 -5.036,9.297 -9.1,12.853 z M 216.6,28.867 l 75.947,0 c 52.343,0 95.272,40.762 98.752,92.233 l -35.605,-6.046 c -67.413,-11.947 -135.68,-11.947 -201.387,0 L 118.702,121.1 C 122.179,69.629 165.075,28.867 216.6,28.867 Z M 135.533,173.08 c 6.827,1.707 14.507,2.56 22.187,0.853 31.861,-5.947 64.144,-8.932 96.64,-8.958 32.5,0.026 65.21,3.01 97.92,8.958 2.331,0.583 4.261,0.764 6.068,0.823 5.372,0.407 10.986,-0.393 16.118,-1.676 l 0,43.52 c 0,37.209 -12.764,70.274 -31.929,95.407 l -0.498,0.166 c -0.853,0.853 -1.707,1.707 -2.56,2.56 -4.293,5.724 -8.824,10.943 -13.558,15.649 -21.188,19.74 -46.685,31.284 -70.921,31.284 0,0 -0.001,0 -0.001,0 -0.887,0 -1.772,-0.018 -2.657,-0.046 -14.418,-0.496 -29.207,-5.012 -43.208,-12.837 -13.895,-7.982 -26.966,-19.49 -38.614,-34.051 -0.853,-0.853 -1.707,-1.707 -2.56,-2.56 l -0.498,-0.166 c -19.164,-25.134 -31.929,-58.199 -31.929,-95.407 l 0,-43.519 z M 242.169,377.951 219.16,429.933 172.227,365.08 c -0.272,-0.272 -0.572,-0.541 -0.884,-0.806 l -9.356,-12.848 3.413,-15.36 c 1.154,1.243 2.325,2.454 3.506,3.646 20.077,20.537 45.129,34.856 73.263,38.239 z m 251.764,103.182 -196.266,0 -281.6,0 0,-28.16 c 0,-11.093 5.973,-21.333 16.213,-26.453 54.393,-28.896 93.548,-43.399 128.428,-47.731 l 53.332,73.331 c 1.34,2.011 3.215,2.959 5.608,3.277 0.404,0.08 0.811,0.136 1.218,0.136 0,0 0.853,0 0.853,0.853 2.56,0 5.973,-2.56 6.827,-5.12 l 26.501,-59.628 11.291,24.767 15.115,34.008 c 0.853,2.56 3.413,5.12 6.827,5.12 l 0.853,0 c 2.56,0 5.12,-1.707 6.827,-3.413 l 53.883,-74.09 c 34.757,5.245 74.615,19.737 127.877,47.636 10.24,5.973 16.213,16.213 16.213,27.307 l 0,28.16 z"
           id="path9"
           inkscape:connector-curvature="0" /><path
           d="m 237.933,97.133 34.133,0 c 5.12,0 8.533,-3.413 8.533,-8.533 l 0,-42.667 c 0,-5.12 -3.413,-8.533 -8.533,-8.533 l -34.133,0 c -5.12,0 -8.533,3.413 -8.533,8.533 l 0,42.667 c 0,5.12 3.413,8.533 8.533,8.533 z m 8.534,-42.666 17.067,0 0,25.6 -17.067,0 0,-25.6 z"
           id="path11"
           inkscape:connector-curvature="0" /></g></g></g><g
     id="g13"
     transform="translate(0,-12.801)" /><g
     id="g15"
     transform="translate(0,-12.801)" /><g
     id="g17"
     transform="translate(0,-12.801)" /><g
     id="g19"
     transform="translate(0,-12.801)" /><g
     id="g21"
     transform="translate(0,-12.801)" /><g
     id="g23"
     transform="translate(0,-12.801)" /><g
     id="g25"
     transform="translate(0,-12.801)" /><g
     id="g27"
     transform="translate(0,-12.801)" /><g
     id="g29"
     transform="translate(0,-12.801)" /><g
     id="g31"
     transform="translate(0,-12.801)" /><g
     id="g33"
     transform="translate(0,-12.801)" /><g
     id="g35"
     transform="translate(0,-12.801)" /><g
     id="g37"
     transform="translate(0,-12.801)" /><g
     id="g39"
     transform="translate(0,-12.801)" /><g
     id="g41"
     transform="translate(0,-12.801)" /></svg>