<?xml version="1.0" encoding="UTF-8" standalone="no"?>
<!-- Generator: Adobe Illustrator 19.0.0, SVG Export Plug-In . SVG Version: 6.00 Build 0)  -->

<svg
   xmlns:dc="http://purl.org/dc/elements/1.1/"
   xmlns:cc="http://creativecommons.org/ns#"
   xmlns:rdf="http://www.w3.org/1999/02/22-rdf-syntax-ns#"
   xmlns:svg="http://www.w3.org/2000/svg"
   xmlns="http://www.w3.org/2000/svg"
   xmlns:sodipodi="http://sodipodi.sourceforge.net/DTD/sodipodi-0.dtd"
   xmlns:inkscape="http://www.inkscape.org/namespaces/inkscape"
   version="1.1"
   id="Layer_1"
   x="0px"
   y="0px"
   viewBox="0 0 368 480"
   xml:space="preserve"
   inkscape:version="0.91 r13725"
   sodipodi:docname="002-list.svg"
   width="368"
   height="480"><metadata
     id="metadata121"><rdf:RDF><cc:Work
         rdf:about=""><dc:format>image/svg+xml</dc:format><dc:type
           rdf:resource="http://purl.org/dc/dcmitype/StillImage" /><dc:title></dc:title></cc:Work></rdf:RDF></metadata><defs
     id="defs119" /><sodipodi:namedview
     pagecolor="#ffffff"
     bordercolor="#666666"
     borderopacity="1"
     objecttolerance="10"
     gridtolerance="10"
     guidetolerance="10"
     inkscape:pageopacity="0"
     inkscape:pageshadow="2"
     inkscape:window-width="640"
     inkscape:window-height="480"
     id="namedview117"
     showgrid="false"
     fit-margin-top="0"
     fit-margin-left="0"
     fit-margin-right="0"
     fit-margin-bottom="0"
     inkscape:zoom="0.49166667"
     inkscape:cx="184"
     inkscape:cy="240"
     inkscape:window-x="0"
     inkscape:window-y="0"
     inkscape:window-maximized="0"
     inkscape:current-layer="Layer_1" /><g
     id="g3"
     transform="translate(-56,0)"><g
       id="g5"><path
         d="M 421.648,74.336 349.664,2.352 C 348.216,0.896 346.216,0 344,0 L 96,0 C 73.944,0 56,17.944 56,40 l 0,400 c 0,22.056 17.944,40 40,40 l 288,0 c 22.056,0 40,-17.944 40,-40 l 0,-360 c 0,-2.216 -0.896,-4.216 -2.352,-5.664 z M 352,27.312 396.688,72 352,72 352,27.312 Z M 408,440 c 0,13.232 -10.768,24 -24,24 L 96,464 C 82.768,464 72,453.232 72,440 L 72,40 C 72,26.768 82.768,16 96,16 l 240,0 0,64 c 0,4.424 3.584,8 8,8 l 64,0 0,352 z"
         id="path7"
         inkscape:connector-curvature="0" /></g></g><g
     id="g9"
     transform="translate(-56,0)"><g
       id="g11"><path
         d="m 128,112 c -17.648,0 -32,14.352 -32,32 0,17.648 14.352,32 32,32 17.648,0 32,-14.352 32,-32 0,-17.648 -14.352,-32 -32,-32 z m 0,48 c -8.824,0 -16,-7.176 -16,-16 0,-8.824 7.176,-16 16,-16 8.824,0 16,7.176 16,16 0,8.824 -7.176,16 -16,16 z"
         id="path13"
         inkscape:connector-curvature="0" /></g></g><g
     id="g15"
     transform="translate(-56,0)"><g
       id="g17"><path
         d="m 128,200 c -17.648,0 -32,14.352 -32,32 0,17.648 14.352,32 32,32 17.648,0 32,-14.352 32,-32 0,-17.648 -14.352,-32 -32,-32 z m 0,48 c -8.824,0 -16,-7.176 -16,-16 0,-8.824 7.176,-16 16,-16 8.824,0 16,7.176 16,16 0,8.824 -7.176,16 -16,16 z"
         id="path19"
         inkscape:connector-curvature="0" /></g></g><g
     id="g21"
     transform="translate(-56,0)"><g
       id="g23"><path
         d="m 128,288 c -17.648,0 -32,14.352 -32,32 0,17.648 14.352,32 32,32 17.648,0 32,-14.352 32,-32 0,-17.648 -14.352,-32 -32,-32 z m 0,48 c -8.824,0 -16,-7.176 -16,-16 0,-8.824 7.176,-16 16,-16 8.824,0 16,7.176 16,16 0,8.824 -7.176,16 -16,16 z"
         id="path25"
         inkscape:connector-curvature="0" /></g></g><g
     id="g27"
     transform="translate(-56,0)"><g
       id="g29"><path
         d="m 128,376 c -17.648,0 -32,14.352 -32,32 0,17.648 14.352,32 32,32 17.648,0 32,-14.352 32,-32 0,-17.648 -14.352,-32 -32,-32 z m 0,48 c -8.824,0 -16,-7.176 -16,-16 0,-8.824 7.176,-16 16,-16 8.824,0 16,7.176 16,16 0,8.824 -7.176,16 -16,16 z"
         id="path31"
         inkscape:connector-curvature="0" /></g></g><g
     id="g33"
     transform="translate(-56,0)"><g
       id="g35"><rect
         x="176"
         y="152"
         width="208"
         height="16"
         id="rect37" /></g></g><g
     id="g39"
     transform="translate(-56,0)"><g
       id="g41"><rect
         x="184"
         y="40"
         width="112"
         height="16"
         id="rect43" /></g></g><g
     id="g45"
     transform="translate(-56,0)"><g
       id="g47"><rect
         x="160"
         y="72"
         width="160"
         height="16"
         id="rect49" /></g></g><g
     id="g51"
     transform="translate(-56,0)"><g
       id="g53"><rect
         x="176"
         y="240"
         width="208"
         height="16"
         id="rect55" /></g></g><g
     id="g57"
     transform="translate(-56,0)"><g
       id="g59"><rect
         x="176"
         y="328"
         width="208"
         height="16"
         id="rect61" /></g></g><g
     id="g63"
     transform="translate(-56,0)"><g
       id="g65"><rect
         x="176"
         y="416"
         width="208"
         height="16"
         id="rect67" /></g></g><g
     id="g69"
     transform="translate(-56,0)"><g
       id="g71"><rect
         x="240"
         y="120"
         width="16"
         height="16"
         id="rect73" /></g></g><g
     id="g75"
     transform="translate(-56,0)"><g
       id="g77"><rect
         x="208"
         y="120"
         width="16"
         height="16"
         id="rect79" /></g></g><g
     id="g81"
     transform="translate(-56,0)"><g
       id="g83"><rect
         x="176"
         y="120"
         width="16"
         height="16"
         id="rect85" /></g></g><g
     id="g87"
     transform="translate(-56,0)" /><g
     id="g89"
     transform="translate(-56,0)" /><g
     id="g91"
     transform="translate(-56,0)" /><g
     id="g93"
     transform="translate(-56,0)" /><g
     id="g95"
     transform="translate(-56,0)" /><g
     id="g97"
     transform="translate(-56,0)" /><g
     id="g99"
     transform="translate(-56,0)" /><g
     id="g101"
     transform="translate(-56,0)" /><g
     id="g103"
     transform="translate(-56,0)" /><g
     id="g105"
     transform="translate(-56,0)" /><g
     id="g107"
     transform="translate(-56,0)" /><g
     id="g109"
     transform="translate(-56,0)" /><g
     id="g111"
     transform="translate(-56,0)" /><g
     id="g113"
     transform="translate(-56,0)" /><g
     id="g115"
     transform="translate(-56,0)" /></svg>