<?xml version="1.0" encoding="UTF-8" standalone="no"?>
<!-- Generator: Adobe Illustrator 17.1.0, SVG Export Plug-In . SVG Version: 6.00 Build 0)  -->

<svg
   xmlns:dc="http://purl.org/dc/elements/1.1/"
   xmlns:cc="http://creativecommons.org/ns#"
   xmlns:rdf="http://www.w3.org/1999/02/22-rdf-syntax-ns#"
   xmlns:svg="http://www.w3.org/2000/svg"
   xmlns="http://www.w3.org/2000/svg"
   xmlns:sodipodi="http://sodipodi.sourceforge.net/DTD/sodipodi-0.dtd"
   xmlns:inkscape="http://www.inkscape.org/namespaces/inkscape"
   version="1.1"
   id="Capa_1"
   x="0px"
   y="0px"
   viewBox="0 0 490 479.53299"
   xml:space="preserve"
   inkscape:version="0.91 r13725"
   sodipodi:docname="003-transport.svg"
   width="490"
   height="479.53299"><metadata
     id="metadata87"><rdf:RDF><cc:Work
         rdf:about=""><dc:format>image/svg+xml</dc:format><dc:type
           rdf:resource="http://purl.org/dc/dcmitype/StillImage" /><dc:title></dc:title></cc:Work></rdf:RDF></metadata><defs
     id="defs85" /><sodipodi:namedview
     pagecolor="#ffffff"
     bordercolor="#666666"
     borderopacity="1"
     objecttolerance="10"
     gridtolerance="10"
     guidetolerance="10"
     inkscape:pageopacity="0"
     inkscape:pageshadow="2"
     inkscape:window-width="640"
     inkscape:window-height="480"
     id="namedview83"
     showgrid="false"
     fit-margin-top="0"
     fit-margin-left="0"
     fit-margin-right="0"
     fit-margin-bottom="0"
     inkscape:zoom="0.48163265"
     inkscape:cx="245"
     inkscape:cy="239.766"
     inkscape:window-x="0"
     inkscape:window-y="0"
     inkscape:window-maximized="0"
     inkscape:current-layer="Capa_1" /><g
     id="g3"
     transform="translate(0,-5.233)"><path
       d="m 479.397,183.2 -28.52,0 c -5.851,0 -10.608,4.756 -10.608,10.602 l 0,44.876 -10.24,0 0,-146.229 c 0,-27.951 -20.637,-51.023 -59.678,-66.723 C 337.491,12.511 293.3,5.233 245.918,5.233 l -0.902,0.001 -0.93,-0.001 c -47.387,0 -91.579,7.277 -124.439,20.491 -39.04,15.699 -59.676,38.772 -59.676,66.725 l 0,146.23 -10.24,0 0,-44.876 c 0,-5.847 -4.758,-13.536 -10.608,-13.536 l -28.52,0 C 4.757,180.266 0,187.956 0,193.802 l 0,73.646 c 0,5.846 4.757,10.602 10.604,10.602 l 49.368,0 0,119.228 c 0,21.12 15.612,38.657 35.901,41.689 l 0,31.579 c 0,7.84 6.379,14.22 14.218,14.22 l 35.398,0 c 7.84,0 14.216,-6.379 14.216,-14.22 l 0,-31.112 170.6,0 0,31.112 c 0,7.84 6.376,14.22 14.216,14.22 l 35.391,0 c 7.838,0 14.216,-6.379 14.216,-14.22 l 0,-31.579 c 20.289,-3.03 35.901,-20.569 35.901,-41.689 l 0,-119.227 49.368,0 c 5.847,0 10.603,-4.756 10.603,-10.602 l 0,-73.646 c 0,-5.847 -4.757,-10.603 -10.603,-10.603 z m -465.418,80.871 0,-66.892 21.772,0 0,48.489 c 0,3.86 3.13,6.99 6.99,6.99 l 17.229,0 0,11.413 -45.991,0 z m 131.747,206.476 c 0,0.132 -0.105,0.24 -0.236,0.24 l -35.398,0 c -0.13,0 -0.237,-0.108 -0.237,-0.24 l 0,-31.112 35.872,0 0,31.112 z m 234.421,0 c 0,0.136 -0.101,0.24 -0.235,0.24 l -35.391,0 c -0.133,0 -0.236,-0.105 -0.236,-0.24 l 0,-31.112 35.862,0 0,31.112 z m 35.901,-73.268 c 0,15.536 -12.639,28.176 -28.174,28.176 l -285.744,0 c -15.538,0 -28.178,-12.64 -28.178,-28.176 l 0,-304.83 c 0,-48.08 85.588,-73.236 170.134,-73.236 l 0.93,10e-4 0.902,-10e-4 c 84.544,0 170.13,25.156 170.13,73.236 l 0,304.83 z m 59.973,-133.208 -45.992,0 0,-11.413 17.23,0 c 3.86,0 6.99,-3.129 6.99,-6.99 l 0,-48.489 21.773,0 0,66.892 z"
       id="path5"
       inkscape:connector-curvature="0" /><g
       id="g7"><g
         id="g9"><path
           d="m 365.159,278.051 -240.321,0 c -15.976,0 -28.973,-12.997 -28.973,-28.974 l 0,-117.535 c 0,-15.971 12.997,-28.965 28.973,-28.965 l 240.321,0 c 15.977,0 28.975,12.994 28.975,28.965 l 0,117.535 c 10e-4,15.977 -12.998,28.974 -28.975,28.974 z M 124.838,116.557 c -8.268,0 -14.992,6.722 -14.992,14.985 l 0,117.535 c 0,8.268 6.725,14.994 14.992,14.994 l 240.321,0 c 8.268,0 14.995,-6.726 14.995,-14.994 l 0,-117.535 c 0,-8.263 -6.727,-14.985 -14.995,-14.985 l -240.321,0 z"
           id="path11"
           inkscape:connector-curvature="0" /></g><g
         id="g13"><path
           d="m 365.149,362.733 c -15.978,0 -28.978,-12.995 -28.978,-28.969 0,-15.976 13,-28.974 28.978,-28.974 15.974,0 28.969,12.998 28.969,28.974 0,15.974 -12.995,28.969 -28.969,28.969 z m 0,-43.962 c -8.27,0 -14.997,6.726 -14.997,14.994 0,8.265 6.728,14.989 14.997,14.989 8.265,0 14.988,-6.725 14.988,-14.989 10e-4,-8.268 -6.723,-14.994 -14.988,-14.994 z"
           id="path15"
           inkscape:connector-curvature="0" /></g><g
         id="g17"><path
           d="m 124.842,362.733 c -15.978,0 -28.977,-12.995 -28.977,-28.969 0,-15.976 12.999,-28.974 28.977,-28.974 15.969,0 28.96,12.998 28.96,28.974 0,15.974 -12.991,28.969 -28.96,28.969 z m 0,-43.962 c -8.27,0 -14.996,6.726 -14.996,14.994 0,8.265 6.726,14.989 14.996,14.989 8.259,0 14.98,-6.725 14.98,-14.989 -0.001,-8.268 -6.721,-14.994 -14.98,-14.994 z"
           id="path19"
           inkscape:connector-curvature="0" /></g><g
         id="g21"><path
           d="m 334.387,90.516 -178.78,0 c -27.464,0 -29.598,-14.887 -29.598,-19.449 0,-13.689 15.571,-24.119 47.604,-31.885 25.092,-6.083 53.933,-8.806 71.386,-8.806 17.452,0 46.294,2.723 71.384,8.806 32.033,7.766 47.605,18.196 47.605,31.885 0,4.562 -2.134,19.449 -29.601,19.449 z M 245,44.356 c -16.62,0 -44.122,2.601 -68.091,8.412 -29.203,7.08 -36.92,15.066 -36.92,18.299 0,3.322 6.13,5.469 15.618,5.469 l 178.779,0 c 9.49,0 15.622,-2.147 15.622,-5.469 0,-3.233 -7.716,-11.219 -36.918,-18.299 -23.969,-5.81 -51.47,-8.412 -68.09,-8.412 z"
           id="path23"
           inkscape:connector-curvature="0" /></g><g
         id="g25"><g
           id="g27"><path
             d="m 209.581,238.873 c -1.226,0 -2.468,-0.323 -3.595,-1.001 -3.309,-1.99 -4.378,-6.285 -2.388,-9.592 L 253.6,145.143 c 1.989,-3.308 6.284,-4.377 9.592,-2.387 3.308,1.99 4.378,6.285 2.388,9.593 l -50.003,83.136 c -1.31,2.18 -3.623,3.388 -5.996,3.388 z"
             id="path29"
             inkscape:connector-curvature="0" /></g><g
           id="g31"><path
             d="m 233.424,238.873 c -1.226,0 -2.468,-0.323 -3.595,-1.001 -3.31,-1.989 -4.378,-6.285 -2.388,-9.592 l 36.57,-60.806 c 1.989,-3.308 6.282,-4.377 9.592,-2.387 3.309,1.989 4.377,6.285 2.387,9.593 l -36.57,60.805 c -1.311,2.18 -3.623,3.388 -5.996,3.388 z"
             id="path33"
             inkscape:connector-curvature="0" /></g><g
           id="g35"><path
             d="m 257.263,238.873 c -1.226,0 -2.468,-0.323 -3.596,-1.001 -3.309,-1.99 -4.377,-6.285 -2.387,-9.592 l 23.143,-38.478 c 1.989,-3.308 6.283,-4.376 9.592,-2.387 3.309,1.99 4.377,6.284 2.387,9.593 l -23.143,38.478 c -1.311,2.179 -3.624,3.387 -5.996,3.387 z"
             id="path37"
             inkscape:connector-curvature="0" /></g></g><g
         id="g39"><g
           id="g41"><path
             d="m 301.163,340.752 -112.326,0 c -3.859,0 -6.99,-3.129 -6.99,-6.99 0,-3.861 3.131,-6.99 6.99,-6.99 l 112.326,0 c 3.859,0 6.99,3.129 6.99,6.99 0,3.86 -3.131,6.99 -6.99,6.99 z"
             id="path43"
             inkscape:connector-curvature="0" /></g><g
           id="g45"><path
             d="m 301.163,369.723 -112.326,0 c -3.859,0 -6.99,-3.129 -6.99,-6.99 0,-3.86 3.131,-6.99 6.99,-6.99 l 112.326,0 c 3.859,0 6.99,3.129 6.99,6.99 0,3.861 -3.131,6.99 -6.99,6.99 z"
             id="path47"
             inkscape:connector-curvature="0" /></g><g
           id="g49"><path
             d="m 301.163,398.694 -112.326,0 c -3.859,0 -6.99,-3.129 -6.99,-6.99 0,-3.86 3.131,-6.99 6.99,-6.99 l 112.326,0 c 3.859,0 6.99,3.129 6.99,6.99 0,3.86 -3.131,6.99 -6.99,6.99 z"
             id="path51"
             inkscape:connector-curvature="0" /></g></g></g></g><g
     id="g53"
     transform="translate(0,-5.233)" /><g
     id="g55"
     transform="translate(0,-5.233)" /><g
     id="g57"
     transform="translate(0,-5.233)" /><g
     id="g59"
     transform="translate(0,-5.233)" /><g
     id="g61"
     transform="translate(0,-5.233)" /><g
     id="g63"
     transform="translate(0,-5.233)" /><g
     id="g65"
     transform="translate(0,-5.233)" /><g
     id="g67"
     transform="translate(0,-5.233)" /><g
     id="g69"
     transform="translate(0,-5.233)" /><g
     id="g71"
     transform="translate(0,-5.233)" /><g
     id="g73"
     transform="translate(0,-5.233)" /><g
     id="g75"
     transform="translate(0,-5.233)" /><g
     id="g77"
     transform="translate(0,-5.233)" /><g
     id="g79"
     transform="translate(0,-5.233)" /><g
     id="g81"
     transform="translate(0,-5.233)" /></svg>