<?xml version="1.0" encoding="UTF-8" standalone="no"?>
<!-- Generator: Adobe Illustrator 21.0.0, SVG Export Plug-In . SVG Version: 6.00 Build 0)  -->

<svg
   xmlns:dc="http://purl.org/dc/elements/1.1/"
   xmlns:cc="http://creativecommons.org/ns#"
   xmlns:rdf="http://www.w3.org/1999/02/22-rdf-syntax-ns#"
   xmlns:svg="http://www.w3.org/2000/svg"
   xmlns="http://www.w3.org/2000/svg"
   xmlns:sodipodi="http://sodipodi.sourceforge.net/DTD/sodipodi-0.dtd"
   xmlns:inkscape="http://www.inkscape.org/namespaces/inkscape"
   version="1.1"
   x="0px"
   y="0px"
   viewBox="0 0 473.60001 169.5"
   xml:space="preserve"
   id="svg2"
   inkscape:version="0.91 r13725"
   sodipodi:docname="logo-01.svg"
   width="473.60001"
   height="169.5"><metadata
     id="metadata84"><rdf:RDF><cc:Work
         rdf:about=""><dc:format>image/svg+xml</dc:format><dc:type
           rdf:resource="http://purl.org/dc/dcmitype/StillImage" /><dc:title></dc:title></cc:Work></rdf:RDF></metadata><defs
     id="defs82" /><sodipodi:namedview
     pagecolor="#ffffff"
     bordercolor="#666666"
     borderopacity="1"
     objecttolerance="10"
     gridtolerance="10"
     guidetolerance="10"
     inkscape:pageopacity="0"
     inkscape:pageshadow="2"
     inkscape:window-width="640"
     inkscape:window-height="480"
     id="namedview80"
     showgrid="false"
     fit-margin-top="0"
     fit-margin-left="0"
     fit-margin-right="0"
     fit-margin-bottom="0"
     inkscape:zoom="0.73217726"
     inkscape:cx="231.6"
     inkscape:cy="90.05"
     inkscape:window-x="0"
     inkscape:window-y="0"
     inkscape:window-maximized="0"
     inkscape:current-layer="svg2" /><style
     type="text/css"
     id="style4">
	.st0{fill-rule:evenodd;clip-rule:evenodd;fill:url(#SVGID_1_);}
	.st1{fill:none;}
	.st2{fill:#303467;}
	.st3{fill:#D79336;}
</style><g
     id="Слой_4"
     transform="translate(-27.9,-27.8)"><linearGradient
       id="SVGID_1_"
       gradientUnits="userSpaceOnUse"
       x1="423.12271"
       y1="27.7558"
       x2="424.56339"
       y2="196.3161"><stop
         offset="0"
         style="stop-color:#FBECBD"
         id="stop8" /><stop
         offset="0.3571"
         style="stop-color:#EDBB54"
         id="stop10" /><stop
         offset="0.6758"
         style="stop-color:#E39C3E"
         id="stop12" /><stop
         offset="0.9615"
         style="stop-color:#DB812D"
         id="stop14" /></linearGradient><path
       class="st0"
       d="M 417.2,27.8 C 387.3,27.8 361,43.5 346,67 c 13,-15.5 32.3,-25.4 53.9,-25.4 38.8,0 70.6,32.3 70.6,71.9 0,39.8 -31.8,72.1 -70.6,72.1 -16.4,0 -31.6,-5.8 -43.6,-15.4 15.4,16.1 37,26.1 61,26.1 46.3,0 84.2,-37.9 84.2,-84.4 -0.1,-46.2 -38,-84.1 -84.3,-84.1 z"
       id="path16"
       inkscape:connector-curvature="0"
       style="clip-rule:evenodd;fill:url(#SVGID_1_);fill-rule:evenodd" /></g><g
     id="Слой_7"
     transform="translate(-27.9,-27.8)"><path
       class="st1"
       d="m 347.4,151.4 -6.8,-1.2 c 0.5,1.1 1.1,2.2 1.7,3.2 l 5.2,0.9 c 0,0 -0.1,-1.2 -0.1,-2.9 z"
       id="path19"
       inkscape:connector-curvature="0"
       style="fill:none" /><path
       class="st1"
       d="m 354.1,102 c 0,-3 -0.1,-13.3 -1.1,-18.2 -1.7,0.9 -3.2,1.7 -4,2.1 -1,0.5 -3.3,1.9 -6,3.5 0,2.7 -0.2,14.1 -0.2,17.4 1.7,-0.8 3,-1.4 3.5,-1.6 2.5,-1.1 5.6,-2.9 7.8,-3.2 z"
       id="path21"
       inkscape:connector-curvature="0"
       style="fill:none" /><path
       class="st1"
       d="m 464.4,144.6 c -1.1,-0.5 -3.6,2 -4.4,2.8 -0.8,0.8 -4.5,4 -3.1,4.6 1.3,0.5 3.1,-0.3 4.1,-0.6 1,-0.2 1.2,0 2.1,-0.7 0.7,-0.5 2,-5.6 1.3,-6.1 z"
       id="path23"
       inkscape:connector-curvature="0"
       style="fill:none" /><path
       class="st1"
       d="m 348.1,159.2 -2.8,-0.8 c 0.3,0.5 0.7,1 1,1.5 l 2,0.6 -0.2,-1.3 z"
       id="path25"
       inkscape:connector-curvature="0"
       style="fill:none" /><path
       class="st1"
       d="m 354.6,140.3 c 4.4,-1.1 6.3,13.3 6.3,13.3 0,0 0.6,3.6 1.8,5.3 0,0 0.4,-19 -6.7,-20.9 -6.4,-0.5 -6.3,11.1 -6.3,15.3 0,4.2 1.7,14.3 4.7,15.1 3.5,0 4.2,-9.7 4.1,-12.5 -0.1,-2.8 -1.1,-13.2 -3.8,-13.8 -2.7,-0.5 -3.1,14.4 -3.1,14.4 0,0 -1.5,-15.1 3,-16.2 z"
       id="path27"
       inkscape:connector-curvature="0"
       style="fill:none" /><path
       class="st1"
       d="m 361.5,110.6 c 1.2,2.1 4.4,10.3 10.1,12.9 5.7,2.5 8.3,1.5 8.3,1.5 0.2,-2.4 -0.1,-8.6 -0.5,-15.2 l -4.4,-0.4 -0.6,-4.3 c -1.9,0.4 -5.7,-0.1 -6.2,-1.3 -0.5,-1.2 -1.2,-9.8 -1.4,-12.2 -0.2,-2.4 -1.3,-7.4 0,-9.1 1.3,-1.6 5.2,-1 5.2,-1 l 0,-3.5 3.4,-0.4 c -0.4,-1 -1,-1.6 -1.7,-1.8 -3,-0.7 -11.2,3 -11.2,3 0,0 -3.2,1.7 -6.6,3.4 -0.1,2.4 -0.2,8.7 -0.2,10.8 0,1.9 0.1,6.9 0.2,9.3 1.9,1.3 4.4,6.3 5.6,8.3 z"
       id="path29"
       inkscape:connector-curvature="0"
       style="fill:none" /><path
       class="st1"
       d="m 373.1,81.7 c 2.5,1.8 4.1,12.7 4.1,18 -0.1,5.3 -1.9,5.2 -1.9,5.2 l 0.6,3.7 3.5,1 C 378.8,101.3 378,92.3 377.6,88.8 377.2,85 376.7,81.4 376,78.9 l -3.2,0 c -0.2,1.8 0.3,2.8 0.3,2.8 z"
       id="path31"
       inkscape:connector-curvature="0"
       style="fill:none" /><path
       class="st1"
       d="m 342.7,106.8 c -0.4,-1.9 -1.9,-10.1 -2.1,-16 -2.3,1.3 -4.6,2.7 -6.4,3.8 -0.1,0.5 -0.2,1 -0.3,1.5 l 0,15 c 3.3,-1.7 6.4,-3.2 8.8,-4.3 z"
       id="path33"
       inkscape:connector-curvature="0"
       style="fill:none" /><path
       class="st1"
       d="m 332.5,104.3 c -0.3,2.5 -0.4,5 -0.4,7.5 0.5,-0.3 1.1,-0.5 1.6,-0.8 -0.3,-1 -0.8,-3.7 -1.2,-6.7 z"
       id="path35"
       inkscape:connector-curvature="0"
       style="fill:none" /><path
       class="st1"
       d="m 416.4,28.9 c -36.9,0 -68.3,23.8 -79.8,56.8 6.7,-5.1 14.4,-10.8 21.9,-16 20.7,-14.2 27.7,-13.9 30.1,-14.1 2.4,-0.1 25,1 43,5.2 18,4.2 17.1,5.8 17.1,5.8 0,0 -22.9,-2.7 -29.2,-3.3 -6.3,-0.6 -30.4,-2.1 -36,-0.7 -5.5,1.4 -17.2,8 -24.5,12.2 -5.2,3 -17.1,10.5 -23.6,14.7 -0.3,1 -0.6,1.9 -0.8,2.9 6.7,-4.5 16,-10.5 19.7,-12.6 5.1,-2.9 11.4,-5.4 14.8,-6.5 3.4,-1.1 7,-2.6 8.7,-1 1.7,1.6 1.6,3.5 1.6,3.5 3.9,6.8 5.3,57.4 5.3,57.4 0,0 -3.9,-1.9 -10.2,-4.3 -6.3,-2.4 -8.5,-3.2 -11.8,-6.3 -3.2,-3.1 -7.6,-15.5 -9.6,-16.1 -1.9,-0.6 -11.8,3.1 -17.7,5.2 -0.9,0.3 -2.1,0.8 -3.5,1.3 0,0 0,0 0,0 0,5.6 0.6,11 1.6,16.3 l 1,-0.2 12.2,-2.7 c 0,0 5.2,-1.4 7.5,-1.1 2.3,0.3 4.2,1.2 12.6,5.5 8.4,4.3 18.2,8.9 18.2,8.9 l -0.7,12.6 -14.1,-9.8 -11.5,-8.1 c 0,0 -3.8,-2.9 -7.9,-3.4 -4,-0.5 -7.9,0.1 -7.9,0.1 l -8.8,1.1 c 1.4,5.8 3.3,11.5 5.8,16.8 l 7.4,0.7 c 0.3,-5.1 1.7,-12.9 8,-14.1 9.7,-0.1 11.9,18.6 10.6,24.3 l 15.4,7.2 c 0,0 6.2,2.7 9,3.2 2.7,0.5 15.1,0.1 21.2,-0.1 6,-0.3 33,-2.8 38.6,-3.6 5.6,-0.8 8.9,-1.2 9.4,-1.4 0.5,-0.2 4.2,-2.8 4.4,-4.6 0.2,-1.3 -0.1,-3.5 -1,-5.1 l -3.5,1 c 0,0 -12.9,2.7 -26.3,3.3 -13.3,0.6 -19.9,1.1 -27.9,0.8 -8,-0.3 -18.2,-2.9 -22,-4 -3.8,-1.1 -11.3,-3.5 -11.3,-3.5 0,0 9.3,1.5 13.7,2.2 4.4,0.6 13.8,2.7 38.3,2.6 0,0 0,-1.3 1.5,-1.6 0,0 5.2,-0.1 8.7,-0.3 3.4,-0.2 10,-0.9 10.3,-0.9 0.3,0 1.4,0.4 1.4,1.8 l 17,-1.5 c -0.3,-0.5 -0.6,-0.9 -1,-1.2 -1.3,-0.9 -3,1.1 -10.3,0.7 0,0 0.5,-9.1 13.4,-13.5 0,0 0.2,7.4 -2.5,11.4 0,0 2.3,0.6 2.8,3.1 0,0 0.3,1.8 -0.2,3.8 0,0 0.1,1.2 0,1.9 -0.2,0.6 -1.1,3 -2.1,3.8 -1,0.8 -0.1,1 -3,2 -2.9,1 -11.2,2.6 -11.2,2.6 0,0 -16.7,2.4 -20.4,2.9 -3.7,0.5 -13.2,1.5 -21.1,2.2 -7.9,0.6 -14,1 -16.7,0.5 -2.7,-0.5 -14.7,-4.1 -21.4,-7.4 0,0 -0.5,2.4 -3.2,3.7 -2.4,1.1 -7,0.9 -9.7,0.2 15.3,15.5 36.6,25.2 60,25.2 46.3,0 84.2,-37.9 84.2,-84.4 0.2,-46.1 -37.7,-84 -84,-84 z m 42.9,130.9 c 0.9,0 1.7,0.8 1.7,1.7 0,0.9 -0.8,1.7 -1.7,1.7 -0.9,0 -1.7,-0.8 -1.7,-1.7 0,-1 0.8,-1.7 1.7,-1.7 z m -5.1,0.3 c 1,0 1.7,0.8 1.7,1.7 0,1 -0.8,1.7 -1.7,1.7 -1,0 -1.7,-0.8 -1.7,-1.7 -0.1,-0.9 0.7,-1.7 1.7,-1.7 z m -46.4,3 c 1.2,0 2.1,1 2.1,2.1 0,1.2 -1,2.1 -2.1,2.1 -1.2,0 -2.1,-1 -2.1,-2.1 0,-1.1 0.9,-2.1 2.1,-2.1 z m -6.5,0.4 c 1.2,0 2.2,1 2.2,2.2 0,1.2 -1,2.2 -2.2,2.2 -1.2,0 -2.2,-1 -2.2,-2.2 0,-1.2 1,-2.2 2.2,-2.2 z m -11.6,-11 c 0,0 1.6,-5 1.1,-10.2 0,0 9.6,-0.3 16.4,2.4 6.8,2.7 8.2,8.8 8.2,8.8 0,0 -12.6,1.6 -25.7,-1 z m 42.4,1 c -6.3,0 -12,-2.4 -12,-2.4 1.8,0.4 9.9,0.3 14.5,0.3 4.6,0 13.8,-0.3 13.8,-0.3 -4.4,2.1 -10,2.3 -16.3,2.4 z m -4.5,-5.7 c -8.9,-0.5 -13.6,-3.1 -13.6,-3.1 2.2,0.3 12.2,0.5 12.2,0.5 l 9.7,0 17.1,-0.5 c -2.7,2 -16.5,3.6 -25.4,3.1 z m 37.8,-50.1 -0.5,0.4 -1.1,3 -1.9,0.7 c 1.2,4.8 2.2,9.5 2.5,13.3 0.8,8.9 0.9,21.8 -0.8,24 l -8,0.8 c 0,0 -27.6,2.6 -39.2,2.3 -11.6,-0.3 -20.2,-1.5 -21.9,-3.5 -1.7,-2 -3.6,-37.7 -3.6,-37.7 l -1,-23.7 c 0,0 -0.7,-4.8 0.6,-7.1 1.3,-2.3 5.3,-2.8 7.7,-1.7 0,0 -2.1,0 -3.5,2.5 -1.4,2.5 -0.3,12.1 -0.3,12.1 l 1.8,28.7 c 0,0 1.3,19.8 3.5,22.6 2.2,2.8 28.9,3.3 34.1,3.5 5.2,0.2 24.7,-0.6 26.1,-1 0,0 1.2,0 1.8,-6.8 0.6,-6.8 -1.5,-23.8 -1.9,-26.3 -0.4,-2.5 -5.8,-24.9 -10.9,-33.1 L 444.8,70 c 0,0 -7.1,-1.3 -13,-1.7 -5.9,-0.4 -19.6,-0.8 -23.9,-1 -4.3,-0.2 -13.3,-0.7 -13.3,-0.7 0,0 14.8,-1.3 23.1,-1.2 8.2,0.1 25.4,2.2 25.4,2.2 0,0 3.8,0.3 5.2,1.1 1.2,0.7 3.3,3.4 6.3,10.7 l 5.3,0 c 0,0 1.3,-0.1 1.9,0.5 0.7,0.6 0.7,1.9 0.7,1.9 l 1.5,0 c 0,0 1.9,-0.6 3.4,3.2 1.5,3.8 -0.5,11.7 -2,12.7 z m -61.1,33.7 c 4.4,0.9 28.9,0.8 28.9,0.8 l 23.6,-0.4 c -5.8,3 -19.3,3.2 -29.1,3.2 -9.8,0 -23.4,-3.6 -23.4,-3.6 z"
       id="path37"
       inkscape:connector-curvature="0"
       style="fill:none" /><path
       class="st1"
       d="m 461.6,81.8 c 0,0 -0.1,-1 -1.3,-1.3 -1,-0.2 -3.8,0.4 -5.1,0.7 0.2,0.6 0.5,1.2 0.7,1.8 2.1,5.5 4.2,12.1 5.9,18.4 L 463,101 c 0,0 0.6,-8.3 -0.6,-12.1 -1.2,-3.7 -1.8,-6 -0.8,-7.1 z"
       id="path39"
       inkscape:connector-curvature="0"
       style="fill:none" /><path
       class="st1"
       d="m 394.6,145.5 c 1.1,2.9 0.8,4.6 0.8,4.6 3.1,1.5 16.7,1.4 16.7,1.4 -3.9,-5.5 -17.5,-6 -17.5,-6 z"
       id="path41"
       inkscape:connector-curvature="0"
       style="fill:none" /><path
       class="st2"
       d="m 383.6,62.7 c 5.5,-1.3 29.7,0.1 36,0.7 6.3,0.6 29.2,3.3 29.2,3.3 0,0 0.9,-1.6 -17.1,-5.8 -18,-4.2 -40.6,-5.4 -43,-5.2 -2.4,0.1 -9.4,-0.1 -30.1,14.1 -7.5,5.2 -15.2,10.9 -21.9,16 -0.4,1.2 -0.8,2.5 -1.2,3.8 6.5,-4.2 18.4,-11.7 23.6,-14.7 7.2,-4.3 18.9,-10.9 24.5,-12.2 z"
       id="path43"
       inkscape:connector-curvature="0"
       style="fill:#303467" /><path
       class="st2"
       d="m 463.9,81.9 -1.5,0 c 0,0 -0.1,-1.3 -0.7,-1.9 -0.7,-0.6 -1.9,-0.5 -1.9,-0.5 l -5.3,0 c -3,-7.2 -5,-10 -6.3,-10.7 -1.4,-0.8 -5.2,-1.1 -5.2,-1.1 0,0 -17.2,-2.1 -25.4,-2.2 -8.2,-0.1 -23.1,1.2 -23.1,1.2 0,0 9,0.5 13.3,0.7 4.3,0.2 18,0.6 23.9,1 5.9,0.4 13,1.7 13,1.7 l 4.1,0.7 c 5.2,8.2 10.5,30.6 10.9,33.1 0.4,2.5 2.5,19.5 1.9,26.3 -0.6,6.8 -1.8,6.8 -1.8,6.8 -1.4,0.4 -20.9,1.2 -26.1,1 -5.2,-0.2 -31.9,-0.7 -34.1,-3.5 -2.2,-2.8 -3.5,-22.6 -3.5,-22.6 l -1.8,-28.7 c 0,0 -1.1,-9.6 0.3,-12.1 1.4,-2.5 3.5,-2.5 3.5,-2.5 -2.4,-1.1 -6.4,-0.6 -7.7,1.7 -1.3,2.3 -0.6,7.1 -0.6,7.1 l 1,23.7 c 0,0 1.9,35.7 3.6,37.7 1.7,2 10.3,3.2 21.9,3.5 11.6,0.3 39.2,-2.3 39.2,-2.3 l 8,-0.8 c 1.7,-2.2 1.6,-15.1 0.8,-24 -0.3,-3.8 -1.3,-8.5 -2.5,-13.3 l 1.9,-0.7 1.1,-3 0.5,-0.4 c 1.4,-1 3.5,-8.8 1.9,-12.6 -1.6,-3.8 -3.3,-3.3 -3.3,-3.3 z m -0.9,19.1 -1.2,0.4 C 460.2,95.1 458,88.6 455.9,83 c -0.2,-0.6 -0.5,-1.2 -0.7,-1.8 1.3,-0.3 4.1,-0.9 5.1,-0.7 1.3,0.3 1.3,1.3 1.3,1.3 -1,1.1 -0.4,3.3 0.7,7.1 1.3,3.8 0.7,12.1 0.7,12.1 z"
       id="path45"
       inkscape:connector-curvature="0"
       style="fill:#303467" /><path
       class="st2"
       d="m 433.2,132.2 c 0,0 -24.5,0.1 -28.9,-0.8 0,0 13.6,3.6 23.4,3.6 9.8,0 23.4,-0.2 29.1,-3.2 l -23.6,0.4 z"
       id="path47"
       inkscape:connector-curvature="0"
       style="fill:#303467" /><path
       class="st2"
       d="m 426.2,145.2 c 0,0 -10,-0.2 -12.2,-0.5 0,0 4.7,2.6 13.6,3.1 8.9,0.5 22.7,-1 25.3,-3.1 l -17.1,0.5 -9.6,0 z"
       id="path49"
       inkscape:connector-curvature="0"
       style="fill:#303467" /><path
       class="st2"
       d="m 420.1,151 c 0,0 5.6,2.5 12,2.4 6.3,0 11.9,-0.3 16.3,-2.4 0,0 -9.1,0.3 -13.8,0.3 -4.6,0 -12.7,0.1 -14.5,-0.3 z"
       id="path51"
       inkscape:connector-curvature="0"
       style="fill:#303467" /><circle
       class="st2"
       cx="459.29999"
       cy="161.5"
       r="1.7"
       id="circle53"
       style="fill:#303467" /><circle
       class="st2"
       cx="454.20001"
       cy="161.8"
       r="1.7"
       id="circle55"
       style="fill:#303467" /><circle
       class="st2"
       cx="407.79999"
       cy="165.3"
       r="2.0999999"
       id="circle57"
       style="fill:#303467" /><circle
       class="st2"
       cx="401.29999"
       cy="165.7"
       r="2.2"
       id="circle59"
       style="fill:#303467" /><path
       class="st2"
       d="m 407.2,144.6 c -6.8,-2.7 -16.4,-2.4 -16.4,-2.4 0.4,5.2 -1.1,10.2 -1.1,10.2 13.1,2.6 25.8,1 25.8,1 0,0 -1.4,-6.1 -8.3,-8.8 z m -11.8,5.5 c 0,0 0.3,-1.6 -0.8,-4.6 0,0 13.5,0.5 17.5,6 0.1,0 -13.6,0.1 -16.7,-1.4 z"
       id="path61"
       inkscape:connector-curvature="0"
       style="fill:#303467" /><path
       class="st2"
       d="m 366.1,172.2 c 2.6,-1.2 3.2,-3.7 3.2,-3.7 6.7,3.3 18.7,7 21.4,7.4 2.7,0.4 8.8,0.1 16.7,-0.5 7.9,-0.6 17.4,-1.7 21.1,-2.2 3.7,-0.5 20.4,-2.9 20.4,-2.9 0,0 8.2,-1.6 11.2,-2.6 2.9,-1 2,-1.2 3,-2 1,-0.8 1.9,-3.2 2.1,-3.8 0.2,-0.6 0,-1.9 0,-1.9 0.6,-2 0.2,-3.8 0.2,-3.8 -0.4,-2.5 -2.8,-3.1 -2.8,-3.1 2.7,-4 2.5,-11.4 2.5,-11.4 -12.8,4.4 -13.4,13.5 -13.4,13.5 7.3,0.4 9,-1.6 10.3,-0.7 0.4,0.3 0.7,0.7 1,1.2 l -17,1.5 c 0,-1.4 -1.1,-1.8 -1.4,-1.8 -0.3,0 -6.8,0.6 -10.3,0.9 -3.4,0.2 -8.7,0.3 -8.7,0.3 -1.5,0.3 -1.5,1.6 -1.5,1.6 -24.5,0.1 -33.9,-1.9 -38.3,-2.6 -4.4,-0.6 -13.7,-2.2 -13.7,-2.2 0,0 7.5,2.5 11.3,3.5 3.8,1 14,3.7 22,4 8,0.3 14.6,-0.2 27.9,-0.8 13.3,-0.6 26.3,-3.3 26.3,-3.3 l 3.5,-1 c 0.9,1.6 1.2,3.8 1,5.1 -0.2,1.7 -3.9,4.4 -4.4,4.6 -0.5,0.2 -3.8,0.6 -9.4,1.4 -5.6,0.8 -32.6,3.3 -38.6,3.6 -6,0.3 -18.4,0.6 -21.2,0.1 -2.7,-0.5 -9,-3.2 -9,-3.2 l -15.4,-7.2 c 1.2,-5.7 -0.9,-24.5 -10.6,-24.3 -6.3,1.2 -7.8,8.9 -8,14.1 l -7.4,-0.7 c 0.2,0.4 0.4,0.8 0.5,1.1 l 6.8,1.2 c 0,1.7 0.1,2.9 0.1,2.9 l -5.2,-0.9 c 0.9,1.7 2,3.4 3,5.1 l 2.8,0.8 0.2,1.3 -2,-0.6 c 3,4.4 6.4,8.6 10.1,12.3 2.7,0.5 7.3,0.8 9.7,-0.3 z m 94.8,-20.8 c -1,0.2 -2.7,1.1 -4.1,0.6 -1.3,-0.5 2.3,-3.8 3.1,-4.6 0.8,-0.8 3.3,-3.3 4.4,-2.8 0.7,0.4 -0.6,5.5 -1.3,6 -0.9,0.8 -1.1,0.6 -2.1,0.8 z m -109.4,5.2 c 0,0 0.4,-14.9 3.1,-14.4 2.7,0.5 3.7,11 3.8,13.8 0.1,2.8 -0.6,12.5 -4.1,12.5 -3,-0.8 -4.7,-10.9 -4.7,-15.1 0,-4.2 0,-15.8 6.3,-15.3 7.1,1.8 6.7,20.9 6.7,20.9 -1.2,-1.7 -1.8,-5.3 -1.8,-5.3 0,0 -1.8,-14.5 -6.3,-13.3 -4.4,1 -3,16.2 -3,16.2 z"
       id="path63"
       inkscape:connector-curvature="0"
       style="fill:#303467" /><path
       class="st2"
       d="m 350.9,131 c 4,0.5 7.9,3.4 7.9,3.4 l 11.5,8.1 14.1,9.8 0.7,-12.6 c 0,0 -9.8,-4.6 -18.2,-8.9 -8.4,-4.3 -10.3,-5.2 -12.6,-5.5 -2.3,-0.3 -7.5,1.1 -7.5,1.1 l -12.2,2.7 -1,0.2 c 0.2,1 0.4,1.9 0.6,2.9 l 8.8,-1.1 c 0,0 3.9,-0.7 7.9,-0.1 z"
       id="path65"
       inkscape:connector-curvature="0"
       style="fill:#303467" /><path
       class="st2"
       d="m 353.1,106.5 c 1.9,0.6 6.4,13 9.6,16.1 3.2,3.1 5.5,3.9 11.8,6.3 6.3,2.4 10.2,4.3 10.2,4.3 0,0 -1.4,-50.6 -5.3,-57.4 0,0 0.1,-1.9 -1.6,-3.5 -1.7,-1.6 -5.3,-0.1 -8.7,1 -3.4,1.1 -9.7,3.6 -14.8,6.5 -3.7,2.1 -13,8.1 -19.7,12.6 -0.2,0.7 -0.3,1.4 -0.5,2.2 1.8,-1.1 4.2,-2.4 6.4,-3.8 0.3,5.9 1.8,14.1 2.1,16 -2.3,1.1 -5.5,2.6 -8.9,4.2 l 0,-15 c -0.6,2.7 -1,5.5 -1.3,8.3 0.4,3 0.9,5.6 1.2,6.7 -0.5,0.2 -1.1,0.5 -1.6,0.8 0,0.4 0,0.8 0,1.3 1.3,-0.5 2.5,-1 3.5,-1.3 5.8,-2.2 15.7,-5.9 17.6,-5.3 z m 22.8,-27.6 c 0.8,2.4 1.2,6.1 1.6,9.9 0.4,3.5 1.2,12.6 1.8,20.8 l -3.5,-1 -0.6,-3.7 c 0,0 1.8,0.1 1.9,-5.2 0.1,-5.3 -1.5,-16.2 -4.1,-18 0,0 -0.5,-1.1 -0.4,-2.9 l 3.3,0 z m -20.2,14.2 c 0,-2.1 0.2,-8.4 0.2,-10.8 3.4,-1.8 6.6,-3.4 6.6,-3.4 0,0 8.2,-3.7 11.2,-3 0.7,0.2 1.2,0.8 1.7,1.8 l -3.4,0.3 0,3.4 c 0,0 -4,-0.6 -5.2,1 -1.3,1.6 -0.2,6.7 0,9.1 0.2,2.4 0.9,11 1.4,12.2 0.5,1.2 4.3,1.6 6.2,1.3 l 0.6,4.3 4.4,0.4 c 0.5,6.6 0.7,12.8 0.5,15.2 0,0 -2.6,1 -8.3,-1.5 -5.7,-2.5 -8.9,-10.8 -10.1,-12.9 -1.1,-1.9 -3.7,-6.9 -5.6,-8.2 -0.1,-2.4 -0.2,-7.3 -0.2,-9.2 z m -12.8,-3.7 c 2.7,-1.6 5.1,-3 6,-3.5 0.8,-0.5 2.3,-1.2 4,-2.1 1.1,4.9 1.1,15.2 1.1,18.2 -2.2,0.3 -5.3,2.1 -7.8,3.2 -0.5,0.2 -1.8,0.8 -3.5,1.6 0.1,-3.3 0.2,-14.7 0.2,-17.4 z"
       id="path67"
       inkscape:connector-curvature="0"
       style="fill:#303467" /></g><g
     id="Слой_2"
     transform="translate(-27.9,-27.8)"><g
       id="XMLID_75_"><path
         id="XMLID_103_"
         class="st3"
         d="m 250.1,145.1 c 2.3,-0.5 6.4,-0.9 10.5,-0.9 5.3,0 8.6,0.7 11.2,2.5 2.5,1.5 4.1,4 4.1,7.4 0,3.6 -2.3,6.9 -6.6,8.5 l 0,0.2 c 4.2,1.1 8,4.3 8,9.7 0,3.5 -1.5,6.3 -3.7,8.2 -2.8,2.4 -7.4,3.6 -14.7,3.6 -4,0 -7,-0.3 -8.8,-0.5 l 0,-38.7 z m 7.1,15.6 3.7,0 c 5,0 7.8,-2.3 7.8,-5.7 0,-3.7 -2.8,-5.4 -7.4,-5.4 -2.1,0 -3.3,0.1 -4.1,0.3 l 0,10.8 z m 0,18.1 c 0.9,0.2 2.2,0.2 3.8,0.2 4.6,0 8.8,-1.7 8.8,-6.6 0,-4.6 -4,-6.5 -9,-6.5 l -3.6,0 0,12.9 z"
         inkscape:connector-curvature="0"
         style="fill:#d79336" /><path
         id="XMLID_101_"
         class="st3"
         d="m 306.5,175.5 c 0,3.4 0.1,6.2 0.2,8.5 l -6.3,0 -0.4,-4.3 0,0 c -1.2,2 -4,4.9 -9.2,4.9 -5.2,0 -9.9,-3.1 -9.9,-12.4 l 0,-16.7 7.2,0 0,15.5 c 0,4.7 1.5,7.8 5.3,7.8 2.9,0 4.8,-2 5.5,-3.9 0.3,-0.6 0.4,-1.4 0.4,-2.2 l 0,-17.2 7.2,0 0,20 z"
         inkscape:connector-curvature="0"
         style="fill:#d79336" /><path
         id="XMLID_76_"
         class="st3"
         d="m 326.8,163.7 c -0.8,-2.2 -2.4,-3.4 -4.9,-3.4 -2.6,0 -4,0.9 -4,2.7 0,1.4 1.4,2.4 4.2,2.8 2.2,0.5 3.7,0.9 4.7,1.2 0.9,0.2 1.9,0.7 2.7,1.3 2.5,1.7 3.7,3.9 3.7,6.7 0,2.9 -1.2,5.3 -3.5,7.1 -2,1.6 -4.7,2.3 -8.3,2.3 -2.9,0 -5.4,-0.7 -7.4,-2 -2.1,-1.3 -3.5,-3.3 -4,-5.9 l 6.1,-1.4 c 0.8,2.7 2.7,4 5.9,4 1.2,0 2.2,-0.2 3.1,-0.7 0.9,-0.4 1.3,-1.3 1.3,-2.3 0,-1 -0.4,-1.8 -1.3,-2.1 -0.9,-0.4 -2.1,-0.8 -3.7,-1.1 -2.1,-0.4 -3.8,-0.9 -5.2,-1.5 -1.4,-0.6 -2.5,-1.4 -3.4,-2.6 -0.9,-1.2 -1.3,-2.7 -1.3,-4.7 0,-2.7 1,-4.9 3,-6.7 1.8,-1.5 4.2,-2.3 7.2,-2.3 5.6,0 9.2,2.2 10.7,6.7 l -5.6,1.9 0,0 z"
         inkscape:connector-curvature="0"
         style="fill:#d79336" /></g><g
       id="XMLID_63_"><path
         id="XMLID_72_"
         class="st2"
         d="m 123.2,114.2 c 0.5,8.2 8.7,12.1 17.9,12.1 6.7,0 12.2,-0.9 17.5,-2.7 l 2.6,13.4 c -6.5,2.7 -14.4,4 -23,4 -21.5,0 -33.9,-12.5 -33.9,-32.3 0,-16.1 10,-33.9 32.1,-33.9 20.5,0 28.3,16 28.3,31.7 0,3.4 -0.4,6.4 -0.6,7.8 l -40.9,0 z m 23.2,-13.5 c 0,-4.8 -2.1,-12.8 -11.2,-12.8 -8.3,0 -11.7,7.7 -12.2,12.8 l 23.4,0 z"
         inkscape:connector-curvature="0"
         style="fill:#303467" /><path
         id="XMLID_70_"
         class="st2"
         d="m 172.1,96.4 c 0,-7.9 -0.3,-14.5 -0.5,-20.2 l 17.1,0 0.9,8.8 0.4,0 c 2.6,-4.2 9,-10.3 19.6,-10.3 13,0 22.7,8.7 22.7,27.4 l 0,37.5 -19.7,0 0,-35.2 c 0,-8.2 -2.9,-13.8 -10,-13.8 -5.5,0 -8.7,3.8 -10.1,7.4 -0.5,1.3 -0.6,3.1 -0.6,4.9 l 0,36.6 -19.7,0 0,-43.1 z"
         inkscape:connector-curvature="0"
         style="fill:#303467" /><path
         id="XMLID_68_"
         class="st2"
         d="m 265,59.1 0,17.1 14.1,0 0,14.5 -14.1,0 0,23 c 0,7.7 1.9,11.2 7.8,11.2 2.7,0 4,-0.1 5.8,-0.5 l 0.1,14.9 c -2.5,0.9 -7.3,1.7 -12.7,1.7 -6.4,0 -11.7,-2.2 -14.9,-5.5 -3.6,-3.8 -5.5,-9.9 -5.5,-18.8 l 0,-26 -8.4,0 0,-14.5 8.4,0 0,-11.8 19.4,-5.3 z"
         inkscape:connector-curvature="0"
         style="fill:#303467" /><path
         id="XMLID_66_"
         class="st2"
         d="m 286.2,97.1 c 0,-9.3 -0.1,-15.4 -0.5,-20.9 l 16.9,0 0.8,11.7 0.5,0 c 3.2,-9.3 10.9,-13.2 17.1,-13.2 1.8,0 2.7,0.1 4.2,0.4 l 0,18.6 c -1.6,-0.3 -3.1,-0.5 -5.3,-0.5 -7.3,0 -12.2,3.9 -13.5,10 -0.3,1.3 -0.4,2.9 -0.4,4.4 l 0,32.2 -19.7,0 0,-42.7 z"
         inkscape:connector-curvature="0"
         style="fill:#303467" /><path
         id="XMLID_64_"
         class="st2"
         d="M 79.4,76.8 C 77,70 72,66.5 64.3,66.5 c -8,0 -12.1,2.7 -12.1,8.2 0,4.4 4.3,7.3 12.8,8.7 6.6,1.5 11.4,2.7 14.3,3.6 2.9,0.7 5.8,2.1 8.4,3.8 7.6,5.1 11.3,11.8 11.3,20.6 0,8.9 -3.6,16.2 -10.7,21.7 -6,4.8 -14.4,7.1 -25.3,7.1 -8.8,0 -16.3,-2.1 -22.7,-6 -6.5,-4 -10.6,-10 -12.4,-18 l 18.7,-4.4 c 2.3,8.1 8.4,12.2 18.1,12.2 3.6,0 6.9,-0.7 9.6,-2.2 2.7,-1.4 4.1,-3.8 4.1,-7 0,-3.2 -1.4,-5.4 -4,-6.5 C 71.8,107.1 68.1,106 63,104.9 56.7,103.5 51.3,102 47.1,100.4 42.8,98.6 39.4,96 36.7,92.4 34,88.8 32.6,84 32.6,78.1 c 0,-8.4 3,-15.1 9.2,-20.3 5.6,-4.7 12.9,-7 22,-7 17.2,0 28,6.7 32.8,20.3 l -17.2,5.7 0,0 z"
         inkscape:connector-curvature="0"
         style="fill:#303467" /></g></g></svg>