<?xml version="1.0" encoding="iso-8859-1"?>
<!-- Generator: Adobe Illustrator 18.1.1, SVG Export Plug-In . SVG Version: 6.00 Build 0)  -->
<svg version="1.1" id="Capa_1" xmlns="http://www.w3.org/2000/svg" xmlns:xlink="http://www.w3.org/1999/xlink" x="0px" y="0px"
	 viewBox="0 0 320.905 320.905" style="enable-background:new 0 0 320.905 320.905;" xml:space="preserve">
<g>
	<path style="fill:#010002;" d="M261.162,156.373h41.816v8.159h-41.816V156.373z M159.093,258.046h8.159v41.647h-8.159V258.046z
		 M23.372,156.373h41.816v8.159H23.372V156.373z M159.093,21.212h8.159v41.641h-8.159V21.212z M229.8,37.954l7.044,4.106
		L220.94,69.337l-7.049-4.112L229.8,37.954z M282.075,87.069l4.079,7.065l-27.407,15.828l-4.079-7.065L282.075,87.069z
		 M282.054,233.847l-27.402-15.828l4.085-7.065l27.397,15.828L282.054,233.847z M229.784,282.946l-15.888-27.282l7.044-4.112
		l15.893,27.288L229.784,282.946z M96.538,282.946l-7.049-4.112l15.909-27.277l7.049,4.112L96.538,282.946z M44.285,233.836
		l-4.079-7.065l27.402-15.828l4.079,7.065L44.285,233.836z M67.597,109.951L40.195,94.123l4.079-7.065l27.402,15.828L67.597,109.951
		z M105.393,69.348L89.505,42.066l7.049-4.106l15.893,27.282L105.393,69.348z"/>
	<path style="fill:#010002;" d="M0,320.905h320.905V0H0V320.905z M8.159,8.159h304.588v304.588H8.159V8.159z"/>
	<path style="fill:#010002;" d="M231.356,116.983l-69.544,38.073l-19.695-30.366c-1.224-1.898-3.753-2.426-5.646-1.202
		c-1.893,1.224-2.426,3.748-1.202,5.64l21.756,33.543c0.245,0.375,0.609,0.593,0.941,0.859c0.179,0.141,0.305,0.354,0.5,0.468
		c0.604,0.337,1.284,0.533,1.98,0.533c0.598,0,1.197-0.174,1.762-0.451c0.06-0.033,0.131-0.016,0.196-0.049l72.862-39.89
		c1.974-1.082,2.703-3.563,1.615-5.542C235.811,116.619,233.325,115.906,231.356,116.983z"/>
</g>
<g>
</g>
<g>
</g>
<g>
</g>
<g>
</g>
<g>
</g>
<g>
</g>
<g>
</g>
<g>
</g>
<g>
</g>
<g>
</g>
<g>
</g>
<g>
</g>
<g>
</g>
<g>
</g>
<g>
</g>
</svg>
