<?xml version="1.0" encoding="utf-8"?>
<!-- Generator: Adobe Illustrator 21.0.0, SVG Export Plug-In . SVG Version: 6.00 Build 0)  -->
<svg version="1.1" id="Capa_1" xmlns="http://www.w3.org/2000/svg" xmlns:xlink="http://www.w3.org/1999/xlink" x="0px" y="0px"
	 viewBox="0 0 277.4 91.1" style="enable-background:new 0 0 277.4 91.1; fill: #2B3169;" xml:space="preserve">
<g>
	<g>
		<path d="M220.9,68c-6.4,0-11.5,5.2-11.5,11.5c0,6.4,5.2,11.5,11.5,11.5c6.4,0,11.5-5.2,11.5-11.5C232.4,73.2,227.3,68,220.9,68z"
			/>
		<path d="M62.3,68c-6.4,0-11.5,5.2-11.5,11.5c0,6.4,5.2,11.5,11.5,11.5c6.4,0,11.5-5.2,11.5-11.5C73.8,73.2,68.7,68,62.3,68z"/>
		<path d="M277.4,41L277.4,41l0-9c0-6.3-4.9-11.9-11.2-12.6l-9.2-1.1c-2.7-2.4-6-4.2-9.3-4.8l-30.9-5.5c-7.9-1.4-20.8-2.7-28.8-2.9
			L15.7,0.4C7.7,0.2,1.2,6.6,1.2,14.6v50.8c0,8,6.5,16.1,14.5,16.2h32.1c-0.1-0.7-0.2-1.4-0.2-2.2c0-8,6.5-14.5,14.5-14.5
			c8,0,14.5,6.5,14.5,14.5c0,0.8-0.1,1.5-0.2,2.2h130.3c-0.1-0.7-0.2-1.4-0.2-2.2c0-8,6.5-14.5,14.5-14.5c8,0,14.5,6.5,14.5,14.5
			c0,0.8-0.1,1.5-0.2,2.2h22.2c8,0.1,13.5-4.7,12.3-12.7l-5.8-38.5c-0.3-1.9-1-3.9-1.9-5.7l3.3,0.4c3.3,0.4,6.1,3.6,6.1,6.9v9
			c0,1.6,1.3,2.9,2.9,2.9C276.1,43.9,277.4,42.6,277.4,41L277.4,41z M185.5,19.9v20.8c0,3.2-2.6,5.8-5.8,5.8H22.5
			c-3.2,0-5.8-2.6-5.8-5.8V15.5c0-3.2,2.6-5.7,5.8-5.7l157.2,4.1C182.9,14,185.5,16.7,185.5,19.9L185.5,19.9z M259.1,55.7
			c0.5,3.2-1.6,4.9-4.7,3.9l-38.1-12.8c-3-1-8.1-1.8-11.3-1.8h-5.4c-3.2,0-5.8-2.6-5.8-5.8V19.8c0-3.2,2.6-6,5.8-6.1
			c10.2-0.3,31.9-0.1,49.6,7.1c3,1.2,5.6,5,6.1,8.1L259.1,55.7z"/>
	</g>
</g>
</svg>
