<?xml version="1.0" encoding="iso-8859-1"?>
<!-- Generator: Adobe Illustrator 18.1.1, SVG Export Plug-In . SVG Version: 6.00 Build 0)  -->
<svg version="1.1" id="Capa_1" xmlns="http://www.w3.org/2000/svg" xmlns:xlink="http://www.w3.org/1999/xlink" x="0px" y="0px"
	 viewBox="0 0 39.959 39.959" style="enable-background:new 0 0 39.959 39.959;" xml:space="preserve">
<g>
	<g>
		<path style="fill:#030104;" d="M37.021,5.127c-0.186,0-0.379,0.001-0.571,0.005c0.022-0.155,0.037-0.312,0.037-0.474
			c0.155-1.232-0.634-2.037-1.427-2.528c-0.309-0.233-0.658-0.411-1.045-0.504c-0.246-0.088-0.412-0.132-0.412-0.132
			s-4.848-1.115-13.696-1.115S6.355,1.223,6.355,1.223C4.55,1.409,3.476,2.913,3.476,4.659c0,0.104,0.006,0.207,0.014,0.307
			C3.462,5.023,3.431,5.075,3.403,5.131C3.247,5.128,3.091,5.128,2.938,5.128c-1.31,0-2.938,0-2.938,1.818v9.518
			c0,0.991,0.483,1.441,1.134,1.646c0.019,7.157,1.543,14.055,3.386,15.437v3.672c0,1.302,1.057,2.36,2.361,2.36
			s2.36-1.06,2.36-2.36v-2.287c3.295,0.52,7.666,0.791,11.528,0.791h0.002c3.678,0,6.945-0.222,9.602-0.64v2.136
			c0,1.302,1.059,2.36,2.361,2.36c1.302,0,2.359-1.06,2.359-2.36v-3.331c0.25-0.102,0.489-0.206,0.703-0.314l0.077-0.04l0.041-0.074
			c1.078-1.941,2.536-8.245,2.565-15.262c0.817-0.151,1.48-0.571,1.48-1.732V6.947C39.962,5.127,38.332,5.127,37.021,5.127z
			 M6.471,2.336l0.042-0.004l0.04-0.008c0.048-0.009,4.733-0.827,13.355-0.827c8.589,0,13.4,1.076,13.424,1.083
			c0.023,0.005,2.217,0.597,2.043,1.936l-0.008,0.072v0.07c0,1.068-0.705,1.945-1.604,2.038c-0.936-0.287-4.465-1.11-14.023-1.11
			c-9.29,0-12.603,0.792-13.556,1.108c-0.89-0.102-1.586-0.977-1.586-2.036C4.596,3.676,5.086,2.48,6.471,2.336z M34.083,7.848v1.12
			H5.878v-1.12H34.083z M0.559,16.463V6.945c0-1.135,0.762-1.259,2.379-1.259c0.075,0,0.138,0.002,0.208,0.002
			c-1.386,3.243-1.97,7.554-2.009,11.829C0.748,17.344,0.559,17.03,0.559,16.463z M35.464,33.113
			c-2.608,1.305-7.954,2.05-14.693,2.05h-0.002C13.389,35.162,6.4,34.256,4.858,33.1c-0.712-0.533-1.422-2.279-1.988-4.697
			c5.027,0.426,22.487,1.243,34.681-6.466c0,0,0.086-0.104,0.197-0.167C37.371,27.083,36.301,31.528,35.464,33.113z M39.402,16.463
			c0,0.715-0.303,1.028-0.926,1.164c-0.028-4.006-0.535-8.205-1.85-11.935c0.128-0.005,0.254-0.007,0.395-0.007
			c1.619,0,2.381,0.125,2.381,1.26C39.402,6.945,39.402,16.463,39.402,16.463z"/>
		<circle style="fill:#030104;" cx="6.177" cy="31.278" r="1.33"/>
		<circle style="fill:#030104;" cx="10.148" cy="31.964" r="0.907"/>
		<circle style="fill:#030104;" cx="33.784" cy="31.273" r="1.33"/>
		<circle style="fill:#030104;" cx="29.812" cy="31.959" r="0.907"/>
	</g>
</g>
<g>
</g>
<g>
</g>
<g>
</g>
<g>
</g>
<g>
</g>
<g>
</g>
<g>
</g>
<g>
</g>
<g>
</g>
<g>
</g>
<g>
</g>
<g>
</g>
<g>
</g>
<g>
</g>
<g>
</g>
</svg>
